<?xml version="1.0" standalone="no"?>
<!DOCTYPE svg PUBLIC "-//W3C//DTD SVG 20010904//EN"
 "http://www.w3.org/TR/2001/REC-SVG-20010904/DTD/svg10.dtd">
<svg version="1.0" xmlns="http://www.w3.org/2000/svg"
 width="146.000000pt" height="146.000000pt" viewBox="0 0 146.000000 146.000000"
 preserveAspectRatio="xMidYMid meet">
<metadata>
Created by potrace 1.11, written by Peter Selinger 2001-2013
</metadata>
<g transform="translate(0.000000,146.000000) scale(0.100000,-0.100000)"
fill="#000000" stroke="none">
<path d="M649 1346 c-2 -3 -27 -7 -54 -10 -67 -8 -83 -11 -91 -18 -3 -4 -12
-4 -19 -2 -7 3 -16 0 -20 -5 -3 -6 -11 -9 -16 -6 -5 4 -9 1 -9 -5 0 -6 -5 -8
-11 -5 -6 4 -22 -4 -36 -16 -15 -13 -23 -18 -19 -11 7 11 4 11 -12 1 -12 -7
-18 -17 -15 -22 3 -4 -2 -7 -10 -5 -9 2 -23 -6 -32 -17 -9 -11 -13 -13 -9 -5
4 9 -2 7 -13 -5 -11 -11 -18 -23 -16 -28 2 -4 0 -6 -6 -5 -13 4 -84 -72 -120
-127 -14 -22 -30 -43 -36 -47 -5 -4 -7 -8 -2 -8 4 0 1 -10 -8 -23 -8 -13 -12
-27 -8 -30 3 -4 1 -7 -5 -7 -6 0 -9 -9 -7 -20 3 -13 0 -18 -7 -14 -7 5 -9 0
-6 -14 4 -12 2 -22 -4 -22 -6 0 -8 -7 -5 -15 4 -8 3 -16 -2 -19 -6 -4 -14 -81
-12 -131 1 -36 9 -130 11 -135 1 -3 2 -9 1 -13 -3 -15 61 -157 71 -157 5 0 6
-5 3 -10 -3 -6 1 -13 9 -16 9 -3 14 -10 11 -14 -5 -8 145 -170 158 -170 5 0
28 -13 51 -30 24 -16 46 -26 50 -23 3 4 6 1 6 -6 0 -8 7 -11 15 -7 8 3 15 1
15 -4 0 -5 7 -6 17 -3 10 4 14 2 9 -5 -4 -7 1 -10 14 -7 11 2 20 1 20 -3 0 -4
14 -9 31 -10 17 -1 39 -7 49 -12 24 -13 157 -13 162 -1 2 5 23 12 48 15 25 2
46 5 48 6 1 2 5 3 10 5 4 1 16 5 27 10 64 26 86 34 90 34 3 0 11 5 18 11 58
48 77 61 77 54 0 -5 7 2 16 14 8 12 20 19 26 16 6 -4 8 -3 5 3 -8 13 27 46 38
36 4 -5 5 -3 2 3 -3 6 7 25 23 43 16 17 29 35 30 39 0 4 7 15 15 25 18 20 39
68 37 80 -1 4 2 7 6 7 5 0 9 6 10 13 1 16 10 52 13 52 5 0 20 127 20 168 0 71
-5 117 -11 117 -5 0 -6 8 -3 19 3 10 0 22 -6 25 -5 4 -7 14 -4 23 5 12 3 14
-6 8 -10 -6 -11 -2 -6 15 5 15 4 20 -4 16 -7 -5 -9 -1 -5 8 3 9 1 16 -6 16 -6
0 -9 4 -5 9 3 5 -1 16 -9 24 -8 8 -12 17 -9 21 4 3 1 6 -5 6 -7 0 -11 4 -10 8
2 5 -6 21 -17 37 -27 37 -145 160 -145 150 0 -4 -9 3 -21 16 -11 13 -17 17
-13 9 4 -8 -8 -1 -26 15 -18 17 -30 23 -26 15 4 -8 1 -7 -8 4 -8 10 -19 15
-25 11 -6 -3 -11 -1 -11 5 0 6 -4 8 -10 5 -5 -3 -10 -1 -10 5 0 7 -6 10 -12 7
-7 -2 -21 0 -31 5 -24 12 -53 19 -102 23 -22 2 -54 7 -71 10 -16 3 -32 3 -35
1z"/>
</g>
</svg>
